# xmcd
#
# Track frame offsets: 
#        150
#        14987
#        29862
#        43007
#        55007
#        67042
#        80205
#        92175
#        106085
#        119110
#        134945
#        148087
#        162240
#        176660
#        189980
#        202535
#        214880
#        227660
#        240427
#        252360
#        264430
#        277685
#        290172
#        303380
#
# Disc length: 4227 seconds
#
# Revision: 2
# Processed by: cddbd v1.5.2PL0 Copyright (c) Steve Scherf et al.
# Submitted via: ExactAudioCopyFreeDBPlugin 1.0
#
DISCID=73108118
DTITLE=T-Bone Walker - The Complete Recordings of T-Bone Walker, 1940-
DTITLE=1954 (Mosaic box set]
DYEAR=1990
DGENRE=Blues
TTITLE0=T-Bone Blues
TTITLE1=I Got a Break Baby
TTITLE2=Mean Old World
TTITLE3=Low Down Dirty Shame Blues
TTITLE4=Sail on Boogie
TTITLE5=I'm Still in Love with You
TTITLE6=You Don't Love Me Blues
TTITLE7=T-Bone Boogie
TTITLE8=Mean Old World Blues
TTITLE9=Evening
TTITLE10=My Baby Left Me
TTITLE11=Come Back to Me Baby
TTITLE12=I Can't Stand Being Without You
TTITLE13=She is Going to Ruin Me
TTITLE14=No Worry Blues (alternate take)
TTITLE15=No Worry Blues
TTITLE16=Don't Leave Me Baby (alternate take)
TTITLE17=Don't Leave Me Baby
TTITLE18=Bobby Sox Blues (alternate take)
TTITLE19=Bobby Sox Blues
TTITLE20=I'm Gonna Find My Baby
TTITLE21=I'm in an Awful Mood
TTITLE22=It's a Low Down Dirty Deal
TTITLE23=Don't Give Me the Runaround
EXTD=#2319 of 7500 8-D
EXTT0=
EXTT1=
EXTT2=
EXTT3=
EXTT4=
EXTT5=
EXTT6=
EXTT7=
EXTT8=
EXTT9=
EXTT10=
EXTT11=
EXTT12=
EXTT13=
EXTT14=
EXTT15=
EXTT16=
EXTT17=
EXTT18=
EXTT19=
EXTT20=
EXTT21=
EXTT22=
EXTT23=
PLAYORDER=
